<svg width="400" height="300" viewBox="0 0 400 300" fill="none" xmlns="http://www.w3.org/2000/svg">
  <rect width="400" height="300" fill="#1a1a1a"/>
  <rect x="20" y="20" width="360" height="260" rx="12" fill="#2a2a2a" stroke="#444" stroke-width="2"/>
  
  <!-- Video icon -->
  <g transform="translate(200, 150)">
    <circle cx="0" cy="0" r="40" fill="#4a90e2" fill-opacity="0.2"/>
    <circle cx="0" cy="0" r="32" fill="#4a90e2" fill-opacity="0.3"/>
    <polygon points="-12,-14 -12,14 16,0" fill="#4a90e2"/>
  </g>
  
  <!-- Video text -->
  <text x="200" y="220" text-anchor="middle" fill="#888" font-family="Arial, sans-serif" font-size="14" font-weight="500">
    Video Content
  </text>
  
  <!-- Film strip decoration -->
  <rect x="0" y="0" width="400" height="20" fill="#333"/>
  <rect x="0" y="280" width="400" height="20" fill="#333"/>
  
  <!-- Film holes -->
  <g fill="#1a1a1a">
    <circle cx="20" cy="10" r="4"/>
    <circle cx="60" cy="10" r="4"/>
    <circle cx="100" cy="10" r="4"/>
    <circle cx="140" cy="10" r="4"/>
    <circle cx="180" cy="10" r="4"/>
    <circle cx="220" cy="10" r="4"/>
    <circle cx="260" cy="10" r="4"/>
    <circle cx="300" cy="10" r="4"/>
    <circle cx="340" cy="10" r="4"/>
    <circle cx="380" cy="10" r="4"/>
    
    <circle cx="20" cy="290" r="4"/>
    <circle cx="60" cy="290" r="4"/>
    <circle cx="100" cy="290" r="4"/>
    <circle cx="140" cy="290" r="4"/>
    <circle cx="180" cy="290" r="4"/>
    <circle cx="220" cy="290" r="4"/>
    <circle cx="260" cy="290" r="4"/>
    <circle cx="300" cy="290" r="4"/>
    <circle cx="340" cy="290" r="4"/>
    <circle cx="380" cy="290" r="4"/>
  </g>
</svg> 