<?xml version="1.0" encoding="UTF-8" standalone="no"?>
<svg xmlns="http://www.w3.org/2000/svg" version="1.0" width="220" height="87" viewBox="450 -3 220 87" id="svg2815">
  <defs id="defs2817"/>
  <path d="M 506.04375,0.019971954 C 503.56032,0.25716195 500.68657,2.646852 498.79375,6.301222 C 496.27125,11.173722 496.42623,16.536222 499.16875,18.238722 C 501.85501,19.904782 506.0338,17.440372 508.575,12.769972 C 507.47455,12.453762 506.17567,12.238722 504.7,12.238722 L 504.5125,12.238722 L 504.5125,12.019972 C 504.51248,11.371222 504.5125,10.201222 504.5125,9.551222 L 504.5125,9.332472 L 504.73125,9.332472 C 506.47816,9.411802 508.20101,9.448022 509.95,9.457472 C 511.08217,5.560732 510.50828,1.874102 508.325,0.51997195 C 507.63906,0.094351954 506.87156,-0.059088046 506.04375,0.019971954 z M 495.2625,32.176222 C 495.1579,32.188552 495.0664,32.236852 494.98125,32.269972 C 481.30875,38.338722 472.74376,43.686222 455.8875,49.051222 C 455.68125,49.444972 455.80123,49.889972 456.41875,49.832472 C 461.39375,49.094972 472.2975,44.272472 480.41875,40.738722 C 481.19,40.333722 482.38252,40.099972 482.2,40.519972 L 470.45,70.582472 C 468.32125,76.226222 470.87498,78.036222 474.10625,79.019972 C 478.58125,80.097472 481.515,77.909972 483.1375,77.051222 C 490.64875,73.003722 499.04252,66.896222 504.29375,62.051222 C 505.7575,60.522472 505.79502,59.759972 505.04375,60.488722 C 498.365,66.287472 491.5175,69.426222 484.95,72.863722 C 478.8125,74.699972 484.07251,65.343722 484.575,63.082472 C 488.54,53.578722 493.60122,43.232472 496.8875,33.113722 C 497.09093,32.496852 495.99467,32.089922 495.2625,32.176222 z" id="path2803" style="fill:#ff0000;fill-opacity:1;fill-rule:evenodd;stroke:none"/>
  <path d="M 582.2725,8.414972 L 582.2725,39.253722 C 583.88375,35.589972 591.11375,33.583722 594.58625,33.583722 C 622.00125,33.583722 621.69875,78.017472 596.295,78.131222 C 590.2075,78.158722 585.99125,76.602472 582.2725,71.538722 L 582.2725,76.973722 L 570.97,76.973722 L 570.97,8.414972 L 582.2725,8.414972 z M 583.98125,56.091222 C 583.98125,60.002472 584.95625,63.139972 586.89375,65.539972 C 588.82375,67.932472 591.32,69.134972 594.37875,69.134972 C 597.5825,69.134972 600.055,68.031222 601.7975,65.828722 C 603.55,63.611222 604.65875,60.484972 604.65875,56.421222 C 604.65875,52.386222 603.515,49.227472 601.69125,46.958722 C 599.86,44.683722 597.34375,43.542472 594.1525,43.542472 C 590.96125,43.542472 588.4625,44.646222 586.68125,46.848722 C 584.8875,49.066222 583.98125,52.137472 583.98125,56.091222" id="path2506" style="fill:#000033;fill-opacity:1;fill-rule:evenodd;stroke:none"/>
  <path d="M 623.4275,76.849972 C 621.12875,76.794972 621.10875,74.077472 621.695,72.973722 C 622.70375,71.002472 625.65125,72.167472 626.62625,69.007472 C 626.62625,60.978722 626.77,52.291222 626.3875,44.263722 L 611.245,16.303722 C 610.48625,14.807472 610.1575,15.824972 607.95375,14.984972 C 605.2175,13.821222 606.41125,9.219972 608.67125,9.144972 L 632.02875,9.327472 C 634.3225,9.311222 634.59,13.022472 633.37,13.859972 C 631.45875,15.198722 629.7625,15.328722 630.78375,18.307472 L 643.27125,43.774972 C 643.31875,52.041222 643.30625,60.836222 643.35375,69.149972 C 644.1225,71.486222 645.88875,71.153722 647.57875,72.201222 C 649.86125,73.616222 648.22375,76.791222 646.1325,76.798722 C 638.43875,76.846222 631.12125,76.754972 623.4275,76.849972 z M 645.52125,39.023722 L 642.7375,33.368722 C 643.40375,30.836222 646.935,23.471222 647.50875,20.794972 C 647.775,19.797472 647.78875,17.007472 647.01,15.962472 C 646.345,15.372472 644.715,14.398722 642.48375,13.518722 C 640.7,12.304972 641.415,8.758722 644.63875,8.706222 C 659.40375,8.562472 659.0275,8.766222 659.84,8.909972 C 663.23,10.121222 662.065,13.371222 660.05625,14.248722 C 657.89875,15.123722 656.75,15.566222 655.58875,16.693722 C 651.61375,23.932472 648.97125,31.527472 645.52125,39.023722" id="path2508" style="fill:#336699;fill-opacity:1;fill-rule:evenodd;stroke:none"/>
  <path d="M 532.73125,9.207472 C 523.47152,9.364992 514.2016,10.144152 504.91875,9.738722 C 504.91875,10.367252 504.91874,11.280432 504.91875,11.894972 C 509.10694,11.956732 511.79549,13.593052 512.98125,14.769972 C 513.5821,15.366972 513.92363,15.946822 514.075,16.801222 C 514.22638,17.655622 514.2075,18.792412 514.23125,20.707472 C 514.41875,35.896212 514.63751,51.112482 514.825,66.301222 C 514.87152,70.086402 514.2233,72.599662 512.95,73.863722 C 511.72616,75.078682 509.72501,75.832202 505.66875,75.863722 L 505.66875,77.457472 C 520.33745,77.045412 527.44502,77.214032 539.23125,77.269972 C 552.24905,77.332132 560.5998,69.978612 561.98125,61.769972 C 562.67198,57.665652 561.61484,53.345332 558.54375,49.613722 C 555.47266,45.882112 550.3807,42.713852 542.91875,40.988722 L 542.8875,40.644972 C 553.73004,36.061052 557.22574,28.107462 555.04375,21.363722 C 552.86176,14.619982 544.95671,8.999112 532.73125,9.207472 z M 526.825,11.926222 L 530.575,11.926222 C 534.50006,11.926222 537.74661,12.796862 540.23125,14.613722 C 543.68233,17.086402 545.3875,21.234782 545.3875,26.926222 C 545.3875,32.476142 543.61155,36.345272 540.04375,38.457472 C 538.22513,39.554522 535.83575,40.082502 532.91875,40.082472 L 524.98125,40.207472 L 524.79375,40.207472 L 524.79375,40.019972 L 524.79375,15.238722 C 524.79375,14.273452 524.9038,13.501712 525.16875,12.894972 C 525.44544,12.261352 526.05165,11.926232 526.825,11.926222 z M 534.6375,42.894972 C 542.728,42.921482 548.10022,48.234232 549.98125,54.582472 C 551.86228,60.930712 550.29402,68.329262 544.41875,72.582472 C 541.6466,74.588832 538.20778,74.714982 533.04375,74.926222 C 531.5441,74.987992 529.70485,74.370212 528.16875,73.144972 C 526.63265,71.919732 525.42468,70.079372 525.3875,67.676222 L 524.98125,43.457472 L 524.98125,43.269972 L 525.16875,43.238722 C 529.60451,42.879512 532.24794,42.886252 534.6375,42.894972 z" id="path2494" style="fill:#339933;fill-opacity:1;fill-rule:evenodd;stroke:none"/>
</svg>
